<?xml version="1.0" encoding="UTF-8" standalone="no"?>
<!-- Created with Inkscape (http://www.inkscape.org/) -->

<svg
   width="62.721493mm"
   height="44.052551mm"
   viewBox="0 0 62.721493 44.052551"
   version="1.1"
   id="svg1"
   inkscape:version="1.4.2 (ebf0e940d0, 2025-05-08)"
   sodipodi:docname="gai_logo.svg"
   xmlns:inkscape="http://www.inkscape.org/namespaces/inkscape"
   xmlns:sodipodi="http://sodipodi.sourceforge.net/DTD/sodipodi-0.dtd"
   xmlns="http://www.w3.org/2000/svg"
   xmlns:svg="http://www.w3.org/2000/svg">
  <sodipodi:namedview
     id="namedview1"
     pagecolor="#ffffff"
     bordercolor="#000000"
     borderopacity="0.25"
     inkscape:showpageshadow="2"
     inkscape:pageopacity="0.0"
     inkscape:pagecheckerboard="0"
     inkscape:deskcolor="#d1d1d1"
     inkscape:document-units="px"
     showguides="true"
     inkscape:zoom="1.4142136"
     inkscape:cx="439.82042"
     inkscape:cy="388.90873"
     inkscape:window-width="1081"
     inkscape:window-height="1192"
     inkscape:window-x="0"
     inkscape:window-y="0"
     inkscape:window-maximized="0"
     inkscape:current-layer="layer1"
     showgrid="false">
    <inkscape:page
       x="0"
       y="0"
       width="62.721493"
       height="44.052551"
       id="page2"
       margin="0"
       bleed="0" />
  </sodipodi:namedview>
  <defs
     id="defs1" />
  <g
     inkscape:label="Layer 1"
     inkscape:groupmode="layer"
     id="layer1"
     transform="translate(-77.38344,-80.383089)">
    <path
       style="font-size:42.3333px;font-family:'IBM Plex mono';-inkscape-font-specification:'IBM Plex mono';fill:#e8e8e3;fill-opacity:1;stroke:none;stroke-width:3.96875;stroke-linejoin:round;stroke-opacity:1"
       d="m 98.29609,117.50939 c 0,-3.556 -2.412998,-5.842 -8.043327,-5.842 h -4.825996 c -2.074332,0 -3.513664,-0.29633 -3.513664,-1.60866 0,-1.48167 1.820332,-2.24367 3.132664,-2.49767 0.677333,0.127 1.354666,0.16934 2.074332,0.16934 5.122329,0 8.508993,-3.09034 8.508993,-7.53533 0,-2.285999 -0.888999,-4.190997 -2.455331,-5.545663 v -1.481665 h 4.910663 V 90.204411 H 94.06276 c -1.904998,0 -2.624664,1.269999 -2.624664,2.963331 v 0.380999 c -1.227666,-0.592666 -2.666998,-0.888999 -4.317997,-0.888999 -5.12233,0 -8.46666,3.090331 -8.46666,7.535328 0,3.09033 1.608665,5.50333 4.275663,6.68866 v 0.16933 c -2.243665,0.55034 -3.936997,1.56633 -3.936997,3.81 0,1.48167 0.719666,2.413 1.947332,3.00566 v 0.508 c -2.243665,0.59267 -3.555997,1.86267 -3.555997,4.191 0,3.47133 2.878664,5.86792 9.905992,5.86792 7.281328,0 11.006658,-2.52359 11.006658,-6.92625 z m -3.174997,0.16933 c 0,2.37067 -2.328332,3.59833 -6.265329,3.59833 h -3.301997 c -3.555998,0 -4.952997,-1.60866 -4.952997,-3.51366 0,-1.397 0.762,-2.37067 2.201332,-2.96333 h 7.577661 c 3.513664,0 4.74133,1.143 4.74133,2.87866 z m -8.000994,-12.57299 c -3.344331,0 -4.910663,-1.73566 -4.910663,-4.318 v -1.227656 c 0,-2.582335 1.566332,-4.275667 4.910663,-4.275667 3.386664,0 4.952996,1.693332 4.952996,4.275667 v 1.227656 c 0,2.58234 -1.566332,4.318 -4.952996,4.318 z M 131.0456,85.378413 c 1.94734,0 2.667,-0.931332 2.667,-2.158998 v -0.677333 c 0,-1.227666 -0.71966,-2.158998 -2.667,-2.158998 -1.94733,0 -2.66699,0.931332 -2.66699,2.158998 v 0.677333 c 0,1.227666 0.71966,2.158998 2.66699,2.158998 z m -9.56732,26.669977 h 18.62665 v -2.87866 h -7.36599 V 90.20441 h -11.26066 v 2.878664 h 7.87399 v 16.086656 h -7.87399 z"
       id="text5"
       aria-label="g i"
       sodipodi:nodetypes="sssscssccccsscssccsccssssssscssssssssssssssssccccccccccc" />
    <path
       style="fill:none;fill-opacity:1;stroke:#b76e79;stroke-width:3.175;stroke-linecap:butt;stroke-linejoin:miter;stroke-dasharray:none;stroke-opacity:1"
       d="m 114.08015,90.872768 -11.4588,4.992179 v 4.838483 -4.838483 z"
       id="path5"
       sodipodi:nodetypes="ccccc" />
    <path
       style="fill:none;stroke:#5abe5a;stroke-width:3.175;stroke-linejoin:round;stroke-dasharray:none;stroke-opacity:1"
       d="M 114.08015,88.17152 V 108.0689 Z"
       id="path4" />
    <circle
       style="fill:none;stroke:#5abe5a;stroke-width:2.64583;stroke-linejoin:round;stroke-dasharray:none;stroke-opacity:1"
       id="path1"
       cx="114.08015"
       cy="84.508919"
       r="2.802916" />
    <circle
       style="fill:none;stroke:#9e4244;stroke-width:2.64583;stroke-linejoin:round;stroke-dasharray:none;stroke-opacity:1"
       id="path1-3"
       cx="102.62135"
       cy="102.32732"
       r="2.802916" />
    <circle
       style="fill:none;stroke:#5abe5a;stroke-width:2.64583;stroke-linejoin:round;stroke-dasharray:none;stroke-opacity:1"
       id="path1-2"
       cx="114.08015"
       cy="111.53371"
       r="2.802916"
       inkscape:export-filename="gai/docs/static/gai_logo_dark.svg"
       inkscape:export-xdpi="96"
       inkscape:export-ydpi="96" />
  </g>
</svg>
