<?xml version="1.0" encoding="UTF-8" standalone="no"?>
<!-- Created with Inkscape (http://www.inkscape.org/) -->

<svg
   width="54.906727mm"
   height="42.00209mm"
   viewBox="0 0 54.906727 42.00209"
   version="1.1"
   id="svg1"
   xmlns:inkscape="http://www.inkscape.org/namespaces/inkscape"
   xmlns:sodipodi="http://sodipodi.sourceforge.net/DTD/sodipodi-0.dtd"
   xmlns:xlink="http://www.w3.org/1999/xlink"
   xmlns="http://www.w3.org/2000/svg"
   xmlns:svg="http://www.w3.org/2000/svg">
  <sodipodi:namedview
     id="namedview1"
     pagecolor="#ffffff"
     bordercolor="#000000"
     borderopacity="0.25"
     inkscape:showpageshadow="2"
     inkscape:pageopacity="0.0"
     inkscape:pagecheckerboard="0"
     inkscape:deskcolor="#d1d1d1"
     inkscape:document-units="mm"
     inkscape:zoom="3.5063973"
     inkscape:cx="418.09295"
     inkscape:cy="410.10755"
     inkscape:window-width="2125"
     inkscape:window-height="1192"
     inkscape:window-x="0"
     inkscape:window-y="0"
     inkscape:window-maximized="0"
     inkscape:current-layer="layer1">
    <inkscape:page
       x="0"
       y="0"
       width="54.906727"
       height="42.00209"
       id="page2"
       margin="0"
       bleed="0" />
  </sodipodi:namedview>
  <defs
     id="defs1">
    <linearGradient
       id="linearGradient220"
       inkscape:collect="always">
      <stop
         style="stop-color:#ff0303;stop-opacity:1;"
         offset="0"
         id="stop221" />
      <stop
         style="stop-color:#ff9e03;stop-opacity:1;"
         offset="1"
         id="stop222" />
    </linearGradient>
    <radialGradient
       inkscape:collect="always"
       xlink:href="#linearGradient220"
       id="radialGradient222"
       cx="108.9564"
       cy="116.85463"
       fx="108.9564"
       fy="116.85463"
       r="27.453363"
       gradientTransform="matrix(1,0,0,0.76497167,0,27.464148)"
       gradientUnits="userSpaceOnUse" />
  </defs>
  <g
     inkscape:label="Layer 1"
     inkscape:groupmode="layer"
     id="layer1"
     transform="translate(-81.503035,-95.853588)">
    <path
       id="text1"
       style="font-size:42.3333px;font-family:'IBM Plex Sans';-inkscape-font-specification:'IBM Plex Sans';fill:url(#radialGradient222);fill-opacity:1;stroke-width:2.64583;stroke-linejoin:bevel"
       d="m 106.85239,95.853581 a 4.3010669,4.3010669 0 0 0 -4.30103,4.301029 4.3010669,4.3010669 0 0 0 2.22571,3.76773 v 16.79329 a 4.3010669,4.3010669 0 0 0 -2.53887,3.92379 4.3010669,4.3010669 0 0 0 4.30103,4.30103 4.3010669,4.3010669 0 0 0 4.30103,-4.30103 4.3010669,4.3010669 0 0 0 -2.36574,-3.84111 v -16.19229 l 7.86256,11.73055 a 4.3010669,4.3010669 0 0 0 -0.7307,2.39778 4.3010669,4.3010669 0 0 0 4.30103,4.30103 4.3010669,4.3010669 0 0 0 4.30103,-4.30103 4.3010669,4.3010669 0 0 0 -4.30103,-4.30102 4.3010669,4.3010669 0 0 0 -0.38344,0.017 l -8.61808,-12.85761 a 4.3010669,4.3010669 0 0 0 0.24753,-1.43816 4.3010669,4.3010669 0 0 0 -4.30103,-4.301029 z m 17.70383,3.478857 v 2.963122 h 4.14859 v 23.62234 h -4.14859 v 2.96312 h 11.85354 v -2.96312 h -4.1491 v -23.62234 h 4.1491 v -2.963122 z m -26.966311,4.741312 c -1.820332,0 -2.539897,1.22794 -2.539897,2.92127 v 0.38085 c -1.185333,-0.55033 -2.582252,-0.84697 -4.148584,-0.84697 -4.952996,0 -8.212935,3.09047 -8.212935,7.53546 0,3.048 1.523878,5.46082 4.106209,6.68848 v 0.16949 c -2.201332,0.55033 -3.767212,1.60878 -3.767212,3.81011 0,1.48167 0.719502,2.45521 1.947168,3.04787 v 0.46561 c -2.158998,0.59266 -3.471623,1.86266 -3.471623,4.23333 0,3.429 2.794088,5.37642 9.60975,5.37642 7.027328,0 10.583335,-2.07403 10.583335,-6.56136 0,-3.59833 -2.328153,-5.79964 -7.746816,-5.79964 h -4.656563 c -1.989665,0 -3.344499,-0.33874 -3.344499,-1.65107 0,-1.35467 1.439562,-2.07466 2.878894,-2.45566 0.635,0.127 1.397,0.21187 2.116667,0.21187 4.995329,0 8.254793,-3.09045 8.254793,-7.53545 0,-2.32833 -0.93119,-4.27548 -2.497522,-5.63015 v -1.39733 h 4.148586 v -2.96313 z m -6.646106,5.16454 c 2.878664,0 4.698938,1.35467 4.698938,4.23334 v 1.18545 c 0,2.87866 -1.820274,4.23334 -4.698938,4.23334 -2.878665,0 -4.699455,-1.35468 -4.699455,-4.23334 v -1.18545 c 0,-2.87867 1.82079,-4.23334 4.699455,-4.23334 z m -4.233333,19.43138 h 7.281209 c 3.386664,0 4.529439,1.1427 4.529439,2.87837 0,2.37066 -2.200964,3.55586 -5.968628,3.55586 h -3.133142 c -3.428998,0 -4.741313,-1.56611 -4.741313,-3.47111 0,-1.35466 0.635436,-2.32812 2.032435,-2.96312 z" />
  </g>
</svg>
